:SAMPLES-PER-SECOND 30
:FULLY-SPECIFIED
:DEGREES
37
root  34.70462889 36.50044419 -14.95814136 8.083395958 -5.648720741 3.829359055
lowerback  -7.479060173 -1.269129992 -1.074029803
upperback  -4.009950161 -1.204560041 -2.960680008
thorax  0.01207050029 -0.4474839866 -2.536220074
lowerneck  -3.500299931 -15.64920044 -12.47739983
upperneck  9.932330132 -21.43400002 11.56289959
head  6.16960001 -10.31630039 3.729609966
lclavicle  0 -4.497500157e-015 -2.743230041e-014
lhumerus  -48.74420166 27.57430077 65.4776001
lradius  5.228657756e-007 -6.507048965e-006 30.86399841
lwrist  4.824992743e-007 -3.790274832e-007 -26.77479935
lhand  -4.415548489e-031 -36.89830017 -10.55959988
lfingers  90 7.125020027 -90
lthumb  94.79074775 -25.3976094 101.0566937
rclavicle  0 -4.497500157e-015 -2.743230041e-014
rhumerus  -57.06389999 -29.43600082 -57.21680069
rradius  -5.16745672e-007 2.214343908e-008 48.22320175
rwrist  -0.0001064338358 0.02207669616 -160.5390015
rhand  -1.766862857e-031 -2.198319912 -7.641699791
rfingers  -90 -7.125020027 -90
rthumb  -86.48159599 -8.039988717 -66.26945796
rfemur  -12.40692806 16.6992054 13.05966187
rtibia  -1.595768571 -1.136271715 21.48640442
rfoot  -0.05138275772 -22.13875008 -36.3674469
rtoes  4.073237573 19.59747599 -101.9865652
lfemur  -7.875339508 -17.06923103 -20.54945374
ltibia  2.531102657 -1.343413234 14.97636986
lfoot  1.033223033 -22.95920753 38.01467133
ltoes  -8.701386425 -18.07813801 -116.2524466
38
root  34.70417834 36.49852783 -14.95960115 8.052599907 -5.644549847 3.867724419
lowerback  -7.495349407 -1.288409948 -1.06562984
upperback  -4.011950016 -1.231680036 -2.932199955
thorax  0.01850060001 -0.4613550007 -2.513740063
lowerneck  -3.458620071 -15.68900013 -12.44509983
upperneck  9.78248024 -21.47679901 11.49269962
head  6.108699799 -10.34739971 3.707030058
lclavicle  0 -4.497500157e-015 -2.743230041e-014
lhumerus  -48.76959991 27.6576004 65.46800232
lradius  5.228657756e-007 -6.507048965e-006 30.86739922
lwrist  4.824992743e-007 -3.790274832e-007 -26.84959984
lhand  -4.416926341e-031 -36.92210007 -10.63910007
lfingers  90 7.125020027 -90
lthumb  94.81878769 -25.47488462 101.0893896
rclavicle  0 -4.497500157e-015 -2.743230041e-014
rhumerus  -57.0746994 -28.91900063 -57.44910049
rradius  -5.16745672e-007 2.214343908e-008 49.56010056
rwrist  -0.0001064338358 0.02217617817 -161.3959961
rhand  -1.766974577e-031 -2.290750027 -7.815090179
rfingers  -90 -7.125020027 -90
rthumb  -86.56887696 -7.876216657 -66.36922568
rfemur  -12.38991928 16.71813583 13.04083443
rtibia  -1.625114799 -1.143633127 21.51509094
rfoot  -0.06293292344 -22.12044907 -36.39175415
rtoes  4.09954899 19.59219555 -102.0650209
lfemur  -7.817284107 -17.03924942 -20.62650681
ltibia  2.584556818 -1.346564054 14.937047
lfoot  1.059095502 -22.96710014 38.00582123
ltoes  -8.699288918 -18.07912128 -116.2456874
39
root  34.70160116 36.49625403 -14.95724475 8.015761375 -5.617634773 3.923014164
lowerback  -7.495290279 -1.31400001 -1.019379854
upperback  -4.027929783 -1.269099951 -2.91463995
thorax  -0.0001003709986 -0.4805809855 -2.524179935
lowerneck  -3.370500088 -15.72119999 -12.41769981
upperneck  9.618069649 -21.51619911 11.46490002
head  6.040719986 -10.37619972 3.702389956
lclavicle  0 -4.497500157e-015 -2.743230041e-014
lhumerus  -48.80759811 27.69039917 65.43370056
lradius  5.228657756e-007 -6.507048965e-006 30.87639999
lwrist  4.824992743e-007 -3.790274832e-007 -26.8560009
lhand  -0 -36.89720154 -10.62040043
lfingers  90 7.125020027 -90
lthumb  94.80314035 -25.45737287 101.0610251
rclavicle  0 -4.497500157e-015 -2.743230041e-014
rhumerus  -57.06399918 -28.30540085 -57.74570084
rradius  -5.16745672e-007 2.214343908e-008 51.02690125
rwrist  -0.0001064338358 0.02227534167 -161.871994
rhand  -1.766390027e-031 -1.75387001 -7.743070126
rfingers  -90 -7.125020027 -90
rthumb  -86.44066155 -7.971547448 -65.84251454
rfemur  -12.3745451 16.71818161 13.01287746
rtibia  -1.653162718 -1.142178297 21.58784294
rfoot  -0.1002892181 -22.11541367 -36.42292786
rtoes  4.082719133 19.59557725 -102.0148351
lfemur  -7.586220741 -16.97389412 -20.79261398
ltibia  2.755186796 -1.319726348 14.64355469
lfoot  1.037479281 -22.90215302 37.96123505
ltoes  -8.696739479 -18.080316 -116.2374724
40
root  34.69547963 36.49335546 -14.97303069 7.967395782 -5.584303856 4.024392128
lowerback  -7.679130077 -1.336760044 -0.8794858456
upperback  -4.007669926 -1.303519964 -2.892179966
thorax  0.1180720031 -0.4996030033 -2.586189985
lowerneck  -3.272619963 -15.74779987 -12.43130016
upperneck  9.45331955 -21.55050278 11.47140026
head  5.978980064 -10.40229988 3.714309931
lclavicle  0 -4.497500157e-015 -2.743230041e-014
lhumerus  -48.86709976 27.68379974 65.4292984
lradius  5.228657756e-007 -6.507048965e-006 30.91000175
lwrist  4.824992743e-007 -3.790274832e-007 -26.8302002
lhand  -0 -36.87879944 -10.63630009
lfingers  90 7.125020027 -90
lthumb  94.79788268 -25.47358286 101.0427593
rclavicle  0 -4.497500157e-015 -2.743230041e-014
rhumerus  -57.01390076 -27.63269997 -58.05369949
rradius  -5.16745672e-007 2.214343908e-008 52.38209915
rwrist  -0.0001064338358 0.02237419225 -162.7910004
rhand  -1.766378794e-031 -1.741930008 -7.881420135
rfingers  -90 -7.125020027 -90
rthumb  -86.49563429 -7.845931832 -65.83871015
rfemur  -12.48839092 16.70402908 12.98757267
rtibia  -1.756972432 -1.153359175 21.87408257
rfoot  -0.2286433131 -22.16023636 -36.45441818
rtoes  4.060878087 19.59994412 -101.9497186
lfemur  -7.489702702 -17.0188942 -20.92763519
ltibia  2.846883535 -1.376558304 14.47667122
lfoot  0.9886946678 -22.70927048 37.91900253
ltoes  -8.68957451 -18.08367132 -116.2143878
41
root  34.69369543 36.49791808 -14.98802816 8.053892136 -5.664447308 3.856868505
lowerback  -7.709780216 -1.350229979 -1.010870218
upperback  -3.965009928 -1.308030009 -2.961189985
thorax  0.1804199964 -0.4995400012 -2.585119963
lowerneck  -3.202899933 -15.78610039 -12.40270042
upperneck  9.316969872 -21.60120201 11.46469975
head  5.926690102 -10.43319988 3.711999893
lclavicle  0 -4.497500157e-015 -2.743230041e-014
lhumerus  -48.91049957 27.69669914 65.38289642
lradius  5.228657756e-007 -6.507048965e-006 30.9124012
lwrist  4.824992743e-007 -3.790274832e-007 -26.78350067
lhand  -4.412335987e-031 -36.84270096 -10.63549995
lfingers  90 7.125020027 -90
lthumb  94.78081743 -25.47403652 101.0040854
rclavicle  0 -4.497500157e-015 -2.743230041e-014
rhumerus  -56.98089981 -26.96310043 -58.3757019
rradius  -5.16745672e-007 2.214343908e-008 53.89569855
rwrist  -0.0001064338358 0.02247273736 -163.6900024
rhand  -1.766249467e-031 -1.598039985 -7.569210052
rfingers  -90 -7.125020027 -90
rthumb  -86.33931579 -8.13857684 -65.68058208
rfemur  -12.56469154 16.69079781 13.11887741
rtibia  -1.706242323 -1.131347418 21.73338318
rfoot  -0.1276556849 -22.14278412 -36.32983398
rtoes  4.073734759 19.59737654 -101.9880475
lfemur  -8.028925896 -17.15694237 -20.47280884
ltibia  2.418956041 -1.411923409 15.15990162
lfoot  1.019350767 -22.8914547 38.02896118
ltoes  -8.707871356 -18.07509611 -116.2733463
42
root  34.69073378 36.49865999 -14.99140732 8.06065464 -5.679098129 3.814883709
lowerback  -7.725709438 -1.377059937 -1.031530023
upperback  -3.955319881 -1.340489984 -2.980590105
thorax  0.198010996 -0.5152119994 -2.596529961
lowerneck  -3.129539967 -15.83409977 -12.43739986
upperneck  9.189479828 -21.66680145 11.49020004
head  5.889039993 -10.47169971 3.714157343
lclavicle  0 -4.497500157e-015 -2.743230041e-014
lhumerus  -48.96089935 27.72809982 65.33480072
lradius  5.228657756e-007 -6.507048965e-006 30.91797256
lwrist  4.824992743e-007 -3.790274832e-007 -26.77359962
lhand  -0 -36.85350037 -10.57610035
lfingers  90 7.125020027 -90
lthumb  94.7733277 -25.41534925 101.0102886
rclavicle  0 -4.497500157e-015 -2.743230041e-014
rhumerus  -57.02890015 -26.50279999 -58.4654007
rradius  -5.16745672e-007 2.214343908e-008 55.36230087
rwrist  -0.0001064338358 0.02257098258 -164.5769958
rhand  -1.766041585e-031 -1.334579945 -7.696380138
rfingers  -90 -7.125020027 -90
rthumb  -86.34257148 -8.037338264 -65.4314627
rfemur  -12.55583191 16.70116234 13.15809917
rtibia  -1.688535571 -1.12566638 21.68481445
rfoot  -0.1008776277 -22.14440918 -36.31871796
rtoes  4.073841443 19.5973552 -101.9883656
lfemur  -8.121901512 -17.17900085 -20.36878777
ltibia  2.327754974 -1.412525535 15.28440857
lfoot  1.011755824 -22.92967606 38.03984833
ltoes  -8.671396243 -18.09216851 -116.1558381
43
root  34.68911779 36.49895435 -14.99976661 8.062671661 -5.713785172 3.81612277
lowerback  -7.784249783 -1.401489973 -1.007600069
upperback  -3.942430019 -1.371520042 -2.998239994
thorax  0.2413309962 -0.5307559967 -2.632100105
lowerneck  -3.059679985 -15.87310028 -12.4137001
upperneck  9.081520081 -21.71789742 11.46399975
head  5.844009876 -10.50339985 3.718414783
lclavicle  0 -4.497500157e-015 -2.743230041e-014
lhumerus  -49.00719833 27.67329979 65.31500244
lradius  5.228657756e-007 -6.507048965e-006 30.93709946
lwrist  4.824992743e-007 -3.790274832e-007 -26.65710068
lhand  -4.416428369e-031 -36.91350174 -10.64080048
lfingers  90 7.125020027 -90
lthumb  94.81512915 -25.47685724 101.0803591
rclavicle  0 -4.497500157e-015 -2.743230041e-014
rhumerus  -57.09600067 -26.12220192 -58.49250031
rradius  -5.16745672e-007 2.214343908e-008 56.82369995
rwrist  -0.0001064338358 0.0226689335 -165.0850067
rhand  -1.766369707e-031 -1.73221004 -7.660349846
rfingers  -90 -7.125020027 -90
rthumb  -86.40242885 -8.048162015 -65.8166305
rfemur  -12.61392975 16.7088623 13.16338158
rtibia  -1.711375594 -1.132782817 21.75168228
rfoot  -0.1364717484 -22.17532349 -36.31892395
rtoes  4.07824485 19.59647383 -102.0014944
lfemur  -8.181927681 -17.15457726 -20.32566452
ltibia  2.278398752 -1.406212211 15.32917118
lfoot  1.006579638 -22.95508766 38.06396103
ltoes  -8.647908829 -18.10311436 -116.0802277
